<svg width="110" height="39" viewBox="0 0 110 39" fill="none" xmlns="http://www.w3.org/2000/svg">
<path d="M3.664 16V0.599999H0.848V16H3.664ZM12.3523 16V5.374H12.3743L20.1843 16H22.9123V0.599999H20.0963V11.204H20.0743L12.2423 0.599999H9.53628V16H12.3523ZM31.6324 16V9.488H39.4864V7.002H31.6324V3.064L39.6844 3.086V0.599999H28.8164V16H31.6324ZM47.5824 16V0.599999H44.7664V16H47.5824ZM56.2706 16V5.374H56.2926L64.1026 16H66.8306V0.599999H64.0146V11.204H63.9926L56.1606 0.599999H53.4546V16H56.2706ZM75.5507 16V0.599999H72.7347V16H75.5507ZM87.517 16V3.174H92.291V0.599999H79.905V3.174H84.701V16H87.517ZM103.528 16V10.214L109.424 0.599999H106.102L102.142 7.222L98.16 0.599999H94.816L100.712 10.214V16H103.528Z" fill="#FDF3FF"/>
<path d="M0.342 36.416C2.102 37.67 4.214 38.286 6.348 38.286C9.758 38.286 11.958 36.482 11.958 33.732C11.958 30.476 9.054 29.926 6.414 29.53C4.082 29.178 2.014 29.002 2.014 26.802C2.014 24.734 3.73 23.546 6.238 23.546C7.8 23.546 9.208 23.942 10.88 24.976L11.54 23.854C9.604 22.688 8.152 22.314 6.194 22.314C3.026 22.314 0.738 24.096 0.738 26.802C0.738 30.234 3.686 30.432 6.414 30.894C8.614 31.246 10.682 31.686 10.682 33.776C10.682 35.778 9.01 37.054 6.282 37.054C4.566 37.054 2.674 36.416 1.068 35.294L0.342 36.416ZM25.7852 38V23.832H31.1312V22.6H19.1412V23.832H24.5092V38H25.7852ZM39.2483 31.664C39.2483 36.042 41.7783 38.286 45.3643 38.286C48.9503 38.286 51.4803 36.042 51.4803 31.664V22.6H50.2043V31.554C50.2043 35.47 48.0923 37.054 45.3643 37.054C42.6363 37.054 40.5243 35.47 40.5243 31.554V22.6H39.2483V31.664ZM67.1863 38C71.5643 38 74.7763 34.744 74.7763 30.3C74.7763 25.856 71.5643 22.6 67.1863 22.6H61.5543V38H67.1863ZM62.8303 23.832H67.1643C70.9043 23.832 73.4783 26.67 73.4783 30.3C73.4783 33.93 70.9043 36.768 67.1643 36.768H62.8303V23.832ZM85.131 38V22.6H83.855V38H85.131ZM102.101 38.286C106.501 38.286 109.977 34.744 109.977 30.3C109.977 25.856 106.501 22.314 102.101 22.314C97.7011 22.314 94.2471 25.856 94.2471 30.3C94.2471 34.744 97.7011 38.286 102.101 38.286ZM102.101 37.054C98.4051 37.054 95.5231 33.952 95.5231 30.3C95.5231 26.648 98.4051 23.546 102.101 23.546C105.819 23.546 108.679 26.648 108.679 30.3C108.679 33.952 105.819 37.054 102.101 37.054Z" fill="#8F8F8F"/>
</svg>
