<svg width="163" height="61" viewBox="0 0 163 61" fill="none" xmlns="http://www.w3.org/2000/svg">
<path d="M6.57959 25V0.339355H2.17041V25H6.57959ZM18.6758 25V7.70508H18.8296L31.083 25H34.877V0.339355H30.6387V17.6172H30.4849L18.2485 0.339355H14.4204V25H18.6758ZM47.144 25V14.9341H57.4834V11.3452H47.144V4.06494H58.4575V0.339355H42.7349V25H47.144ZM69.5796 25V0.339355H65.1704V25H69.5796ZM81.6758 25V7.70508H81.8296L94.083 25H97.877V0.339355H93.6387V17.6172H93.4849L81.2485 0.339355H77.4204V25H81.6758ZM110.144 25V0.339355H105.735V25H110.144ZM128.41 25V4.06494H135.775V0.339355H116.635V4.06494H124.018V25H128.41ZM153.631 25V15.2759L162.278 0.339355H157.476L151.512 11.0718H151.409L145.428 0.339355H140.591L149.239 15.2759V25H153.631Z" fill="#FDF3FF"/>
<path d="M0.974121 53.4204C1.1792 57.5049 4.80225 60.3589 9.86084 60.3589C15.022 60.3589 18.457 57.5049 18.457 53.4204C18.457 50.1392 16.3208 48.3105 11.5527 47.1313L8.80127 46.4307C4.83643 45.4395 3.0249 44.021 3.0249 41.5601C3.0249 38.4497 5.98145 36.228 9.68994 36.228C13.5693 36.228 16.4575 38.3813 16.6455 41.3379H17.9956C17.8418 37.7148 14.3726 34.9805 9.72412 34.9805C5.22949 34.9805 1.64062 37.749 1.64062 41.5942C1.64062 44.6875 3.7085 46.5332 8.27148 47.6953L11.1938 48.4131C15.3296 49.4556 17.0728 50.9424 17.0728 53.5229C17.0728 56.7358 14.1504 59.1113 9.96338 59.1113C5.67383 59.1113 2.5293 56.77 2.32422 53.4204H0.974121ZM38.1787 60V36.5869H46.8091V35.3394H28.1812V36.5869H36.8286V60H38.1787ZM59.4556 35.3394H58.1055V51.438C58.1055 56.8213 61.6431 60.3589 67.3169 60.3589C72.9907 60.3589 76.5283 56.8213 76.5283 51.438V35.3394H75.1782V51.3867C75.1782 56.0864 72.1704 59.0942 67.3169 59.0942C62.4634 59.0942 59.4556 56.0864 59.4556 51.3867V35.3394ZM89.6533 35.3394V60H97.2754C104.761 60 109.033 55.5054 109.033 47.6611C109.033 39.834 104.744 35.3394 97.2754 35.3394H89.6533ZM91.0205 36.5869H97.2241C103.923 36.5869 107.666 40.5518 107.666 47.6782C107.666 54.7705 103.923 58.7524 97.2241 58.7524H91.0205V36.5869ZM122.483 60V35.3394H121.133V60H122.483ZM145.571 34.9805C138.855 34.9805 134.583 39.9023 134.583 47.6611C134.583 55.4541 138.838 60.3589 145.571 60.3589C152.305 60.3589 156.56 55.4541 156.56 47.6611C156.56 39.9023 152.288 34.9805 145.571 34.9805ZM145.571 36.2451C151.433 36.2451 155.176 40.6885 155.176 47.6611C155.176 54.6509 151.433 59.0942 145.571 59.0942C139.709 59.0942 135.967 54.6509 135.967 47.6611C135.967 40.6885 139.692 36.2451 145.571 36.2451Z" fill="#FDF3FF" fill-opacity="0.5"/>
</svg>
