<svg width="24" height="24" viewBox="0 0 24 24" fill="none" xmlns="http://www.w3.org/2000/svg">
<circle cx="12" cy="12" r="12" fill="#675DA9"/>
<g clip-path="url(#clip0)">
<path d="M17.1153 6.4806C16.775 6.1678 15.3976 5.16629 12.3272 5.15257C12.3272 5.15257 8.70808 4.93306 6.94378 6.55194C5.96148 7.53424 5.61575 8.96928 5.58008 10.7528C5.54441 12.5336 5.49776 15.8728 8.71631 16.7783H8.71906L8.71631 18.1585C8.71631 18.1585 8.69711 18.7182 9.06478 18.8307C9.50929 18.9679 9.7727 18.5426 10.198 18.0844C10.4312 17.8319 10.7523 17.4643 10.9965 17.1817C13.197 17.3655 14.89 16.9429 15.0821 16.8798C15.5266 16.7344 18.0427 16.4134 18.4515 13.0741C18.8741 9.63878 18.2457 7.4629 17.1153 6.4806ZM17.4884 12.8326C17.1427 15.6204 15.104 15.796 14.7281 15.9167C14.569 15.9689 13.0818 16.3393 11.2105 16.2158C11.2105 16.2158 9.8166 17.8978 9.38307 18.3341C9.31447 18.4027 9.2349 18.4301 9.18277 18.4164C9.10868 18.3972 9.08673 18.3094 9.08948 18.1804C9.08948 17.9938 9.10045 15.8838 9.10045 15.8838C9.09771 15.8838 9.09771 15.8838 9.10045 15.8838C6.3758 15.1292 6.53494 12.2866 6.56513 10.7994C6.59531 9.31226 6.87518 8.09124 7.70657 7.27083C9.19649 5.92085 12.2724 6.12115 12.2724 6.12115C14.868 6.13213 16.111 6.91413 16.3991 7.17479C17.3567 7.99795 17.8451 9.95981 17.4884 12.8326Z" fill="#FDF3FF"/>
<path d="M13.5922 10.8516C13.5016 10.8516 13.4248 10.7802 13.4193 10.6869C13.3891 10.097 13.112 9.80891 12.5468 9.77872C12.4507 9.77324 12.3766 9.69092 12.3821 9.59488C12.3876 9.49885 12.4699 9.42476 12.566 9.43025C13.3123 9.47141 13.7294 9.89945 13.7678 10.6677C13.7733 10.7638 13.6992 10.8461 13.6031 10.8488C13.5977 10.8516 13.5949 10.8516 13.5922 10.8516Z" fill="#FDF3FF"/>
<path d="M14.4812 11.148H14.4784C14.3824 11.1452 14.3056 11.0657 14.3083 10.9696C14.322 10.3769 14.1519 9.89677 13.7897 9.50165C13.4303 9.10654 12.9336 8.89252 12.2778 8.84587C12.1818 8.83764 12.1105 8.75532 12.1187 8.65929C12.1269 8.56325 12.2092 8.49191 12.3053 8.50014C13.0461 8.55502 13.6306 8.81294 14.0476 9.26843C14.4674 9.72665 14.6705 10.3001 14.6568 10.9779C14.654 11.0739 14.5745 11.148 14.4812 11.148Z" fill="#FDF3FF"/>
<path d="M15.3921 11.5046C15.2961 11.5046 15.2193 11.4278 15.2193 11.3317C15.211 10.2699 14.9065 9.46041 14.2863 8.85402C13.6745 8.25586 12.898 7.95129 11.9842 7.94306C11.8882 7.94306 11.8114 7.86349 11.8114 7.76745C11.8114 7.67142 11.891 7.59459 11.9842 7.59459C12.9912 7.60282 13.8473 7.94031 14.5251 8.60433C15.2055 9.26834 15.554 10.1848 15.565 11.3262C15.5677 11.425 15.4909 11.5046 15.3921 11.5046C15.3949 11.5046 15.3949 11.5046 15.3921 11.5046Z" fill="#FDF3FF"/>
<path d="M12.5879 13C12.5879 13 12.8321 13.0219 12.9638 12.86L13.219 12.539C13.3425 12.3799 13.6415 12.2783 13.9324 12.4402C14.0943 12.5308 14.3879 12.7119 14.569 12.8463C14.7638 12.989 15.1589 13.3183 15.1616 13.321C15.351 13.4802 15.3949 13.7134 15.2659 13.9631C15.2659 13.9631 15.2659 13.9658 15.2659 13.9686C15.1342 14.2018 14.9559 14.4213 14.7336 14.6243C14.7309 14.6243 14.7309 14.6271 14.7281 14.6271C14.5443 14.7807 14.3632 14.8685 14.1876 14.8878C14.1656 14.8932 14.1409 14.8932 14.108 14.8932C14.0312 14.8932 13.9543 14.8823 13.8775 14.8576L13.872 14.8493C13.5976 14.7725 13.1422 14.5804 12.3849 14.1606C11.891 13.889 11.4821 13.6119 11.1337 13.3347C10.9498 13.1893 10.7632 13.0274 10.5712 12.8353C10.5657 12.8299 10.5574 12.8216 10.552 12.8161C10.5465 12.8107 10.5382 12.8024 10.5327 12.7969C10.5273 12.7914 10.519 12.7832 10.5135 12.7777C10.5081 12.7722 10.4998 12.764 10.4943 12.7585C10.305 12.5664 10.1404 12.3799 9.99495 12.196C9.71782 11.8503 9.44069 11.4387 9.16905 10.9448C8.74924 10.1848 8.55717 9.72929 8.48034 9.45765L8.47211 9.45216C8.44742 9.37534 8.43644 9.29851 8.43644 9.22168C8.43644 9.18875 8.43644 9.16406 8.44193 9.14211C8.46388 8.96376 8.55168 8.78541 8.70259 8.60157C8.70259 8.59882 8.70534 8.59882 8.70534 8.59608C8.90838 8.37108 9.12789 8.19548 9.36112 8.06377C9.36112 8.06377 9.36387 8.06377 9.36661 8.06377C9.61356 7.93481 9.84678 7.97871 10.0087 8.16804C10.0087 8.16804 10.3407 8.5659 10.4834 8.76071C10.6178 8.94455 10.7989 9.2354 10.8895 9.39729C11.0513 9.68814 10.9498 9.98722 10.7907 10.1107L10.4696 10.3659C10.3078 10.4976 10.3297 10.7418 10.3297 10.7418C10.3297 10.7418 10.8044 12.5472 12.5879 13Z" fill="#FDF3FF"/>
</g>
<defs>
<clipPath id="clip0">
<rect width="13.7143" height="13.7143" fill="white" transform="translate(5.14355 5.14258)"/>
</clipPath>
</defs>
</svg>
