<svg width="24" height="24" viewBox="0 0 24 24" fill="none" xmlns="http://www.w3.org/2000/svg">
<circle cx="12" cy="12" r="12" fill="#436EAB"/>
<path d="M18.7851 15.22C18.7685 15.1842 18.753 15.1544 18.7386 15.1306C18.5007 14.7014 18.046 14.1746 17.3748 13.55L17.3606 13.5357L17.3535 13.5287L17.3464 13.5215H17.3391C17.0345 13.2307 16.8416 13.0351 16.7608 12.935C16.613 12.7443 16.5799 12.5512 16.6607 12.3556C16.7178 12.2078 16.9322 11.8957 17.3034 11.4189C17.4986 11.1662 17.6532 10.9636 17.7674 10.811C18.591 9.71441 18.9481 9.01365 18.8386 8.70849L18.796 8.63718C18.7674 8.59424 18.6936 8.55497 18.5748 8.51915C18.4556 8.4834 18.3033 8.47749 18.1176 8.50131L16.0613 8.51554C16.0279 8.50372 15.9804 8.50482 15.9184 8.51915C15.8565 8.53347 15.8255 8.54066 15.8255 8.54066L15.7897 8.55857L15.7613 8.58009C15.7375 8.59432 15.7113 8.61934 15.6828 8.65511C15.6543 8.69075 15.6305 8.73258 15.6115 8.78025C15.3876 9.35714 15.1331 9.89351 14.8474 10.3893C14.6713 10.685 14.5095 10.9412 14.3618 11.1581C14.2142 11.375 14.0905 11.5348 13.9906 11.6372C13.8905 11.7397 13.8003 11.8219 13.7192 11.8839C13.6382 11.946 13.5764 11.9722 13.5336 11.9626C13.4907 11.953 13.4503 11.9435 13.4121 11.934C13.3455 11.891 13.2919 11.8327 13.2515 11.7588C13.211 11.6849 13.1837 11.5919 13.1694 11.4798C13.1552 11.3677 13.1468 11.2713 13.1444 11.1902C13.1421 11.1092 13.1432 10.9947 13.148 10.8469C13.153 10.699 13.1552 10.599 13.1552 10.5465C13.1552 10.3653 13.1587 10.1687 13.1658 9.9565C13.173 9.74434 13.1788 9.57624 13.1837 9.4524C13.1885 9.32844 13.1908 9.19728 13.1908 9.05902C13.1908 8.92075 13.1824 8.81231 13.1658 8.73361C13.1494 8.65501 13.1242 8.57871 13.091 8.50474C13.0576 8.43085 13.0087 8.37369 12.9446 8.33311C12.8804 8.29258 12.8005 8.26042 12.7054 8.23653C12.4531 8.17934 12.1318 8.14841 11.7414 8.1436C10.856 8.13408 10.2871 8.19134 10.0348 8.3153C9.93486 8.36768 9.8444 8.43924 9.76352 8.52977C9.67781 8.6347 9.66585 8.69196 9.72773 8.70137C10.0134 8.74423 10.2156 8.84676 10.3346 9.00884L10.3775 9.09474C10.4109 9.15671 10.4442 9.26642 10.4775 9.42372C10.5108 9.58103 10.5323 9.75504 10.5418 9.94566C10.5655 10.2938 10.5655 10.5917 10.5418 10.8396C10.5179 11.0876 10.4954 11.2806 10.4739 11.4189C10.4525 11.5572 10.4203 11.6692 10.3775 11.755C10.3346 11.8408 10.3061 11.8933 10.2918 11.9123C10.2775 11.9313 10.2656 11.9433 10.2562 11.9481C10.1943 11.9718 10.1299 11.9839 10.0633 11.9839C9.99663 11.9839 9.91575 11.9505 9.82056 11.8837C9.7254 11.8169 9.62664 11.7252 9.52427 11.6084C9.42191 11.4915 9.30647 11.3282 9.17789 11.1185C9.04942 10.9087 8.91611 10.6608 8.77806 10.3748L8.66384 10.1673C8.59244 10.0339 8.4949 9.83953 8.37113 9.58451C8.24728 9.32939 8.13781 9.08261 8.04265 8.84423C8.00461 8.74411 7.94746 8.66789 7.87131 8.61543L7.83557 8.59392C7.81181 8.57488 7.77367 8.55467 7.72135 8.53312C7.66896 8.51161 7.61429 8.49618 7.55711 8.48668L5.60063 8.50091C5.4007 8.50091 5.26505 8.54627 5.19362 8.63687L5.16504 8.67973C5.15076 8.7036 5.14355 8.74173 5.14355 8.7942C5.14355 8.84666 5.15784 8.91103 5.18642 8.98725C5.47203 9.65955 5.78263 10.3079 6.11821 10.9325C6.45379 11.557 6.7454 12.0601 6.99287 12.4413C7.24039 12.8228 7.49269 13.1828 7.74976 13.5212C8.00684 13.8598 8.177 14.0767 8.26026 14.172C8.34362 14.2675 8.40909 14.3389 8.45669 14.3865L8.63523 14.5582C8.74948 14.6726 8.91724 14.8097 9.1386 14.9693C9.36001 15.1291 9.60513 15.2864 9.87408 15.4415C10.1431 15.5963 10.456 15.7227 10.8131 15.8204C11.1701 15.9182 11.5176 15.9575 11.8556 15.9385H12.6768C12.8433 15.9241 12.9695 15.8717 13.0552 15.7811L13.0837 15.7453C13.1028 15.7168 13.1206 15.6726 13.1371 15.6131C13.1539 15.5536 13.1622 15.4879 13.1622 15.4165C13.1573 15.2115 13.1729 15.0268 13.2085 14.8623C13.2441 14.6979 13.2846 14.5739 13.33 14.4904C13.3753 14.407 13.4265 14.3367 13.4835 14.2796C13.5405 14.2224 13.5812 14.1878 13.6051 14.1758C13.6288 14.1638 13.6477 14.1557 13.662 14.1508C13.7762 14.1127 13.9107 14.1496 14.0655 14.2618C14.2203 14.3738 14.3654 14.5121 14.5012 14.6766C14.6368 14.8411 14.7998 15.0258 14.9902 15.2307C15.1807 15.4358 15.3473 15.5882 15.49 15.6885L15.6328 15.7743C15.7281 15.8315 15.8519 15.884 16.0043 15.9317C16.1563 15.9793 16.2896 15.9912 16.404 15.9674L18.2319 15.9389C18.4127 15.9389 18.5534 15.9089 18.6532 15.8494C18.7531 15.7898 18.8125 15.7241 18.8317 15.6527C18.8508 15.5812 18.8518 15.5001 18.8353 15.4095C18.8184 15.319 18.8017 15.2558 18.7851 15.22Z" fill="#FDF3FF"/>
</svg>
