<svg width="24" height="24" viewBox="0 0 24 24" fill="none" xmlns="http://www.w3.org/2000/svg">
<circle cx="12" cy="12" r="12" fill="#0DC143"/>
<g clip-path="url(#clip0)">
<path d="M16.5727 7.44774C15.3815 6.23152 13.735 5.57129 12.0534 5.57129C8.48001 5.57129 5.6073 8.45546 5.64233 11.9651C5.64233 13.0771 5.95763 14.1543 6.48313 15.1273L5.57227 18.4284L8.97047 17.5597C9.91637 18.0809 10.9674 18.3242 12.0184 18.3242C15.5567 18.3242 18.4294 15.44 18.4294 11.9304C18.4294 10.2277 17.7638 8.6292 16.5727 7.44774ZM12.0534 17.247C11.1075 17.247 10.1616 17.0037 9.35584 16.5172L9.14564 16.413L7.11372 16.9342L7.63922 14.9535L7.49909 14.745C5.95763 12.2779 6.69332 9.01144 9.21571 7.48249C11.7381 5.95353 14.9962 6.68326 16.5376 9.18519C18.0791 11.6871 17.3434 14.9188 14.821 16.4477C14.0152 16.969 13.0343 17.247 12.0534 17.247ZM15.1363 13.3898L14.7509 13.2161C14.7509 13.2161 14.1904 12.9728 13.8401 12.7991C13.805 12.7991 13.77 12.7643 13.735 12.7643C13.6299 12.7643 13.5598 12.7991 13.4897 12.8338C13.4897 12.8338 13.4547 12.8686 12.9642 13.4246C12.9292 13.4941 12.8591 13.5288 12.7891 13.5288H12.754C12.719 13.5288 12.6489 13.4941 12.6139 13.4593L12.4387 13.3898C12.0534 13.2161 11.7031 13.0076 11.4228 12.7296C11.3527 12.6601 11.2476 12.5906 11.1776 12.5211C10.9323 12.2779 10.6871 11.9999 10.5119 11.6871L10.4769 11.6176C10.4419 11.5829 10.4419 11.5481 10.4068 11.4786C10.4068 11.4091 10.4068 11.3396 10.4419 11.3049C10.4419 11.3049 10.582 11.1311 10.6871 11.0269C10.7572 10.9574 10.7922 10.8531 10.8623 10.7836C10.9323 10.6794 10.9674 10.5404 10.9323 10.4362C10.8973 10.2624 10.4769 9.32418 10.3718 9.11569C10.3017 9.01144 10.2317 8.97669 10.1266 8.94195H10.0215C9.9514 8.94195 9.8463 8.94195 9.7412 8.94195C9.67114 8.94195 9.60107 8.97669 9.531 8.97669L9.49597 9.01144C9.4259 9.04619 9.35584 9.11569 9.28577 9.15044C9.21571 9.21994 9.18067 9.28944 9.11061 9.35893C8.86538 9.67167 8.72524 10.0539 8.72524 10.4362C8.72524 10.7141 8.79531 10.9921 8.90041 11.2354L8.93544 11.3396C9.25074 11.9999 9.67114 12.5906 10.2317 13.1118L10.3718 13.2508C10.4769 13.3551 10.582 13.4246 10.6521 13.5288C11.3878 14.1543 12.2286 14.606 13.1744 14.8493C13.2795 14.884 13.4197 14.884 13.5248 14.9188C13.6299 14.9188 13.77 14.9188 13.8751 14.9188C14.0503 14.9188 14.2605 14.8493 14.4006 14.7798C14.5057 14.7103 14.5758 14.7103 14.6458 14.6408L14.7159 14.5713C14.786 14.5018 14.856 14.467 14.9261 14.3975C14.9962 14.328 15.0662 14.2585 15.1013 14.189C15.1713 14.0501 15.2064 13.8763 15.2414 13.7026C15.2414 13.6331 15.2414 13.5288 15.2414 13.4593C15.2414 13.4593 15.2064 13.4246 15.1363 13.3898Z" fill="#FDF3FF"/>
</g>
<defs>
<clipPath id="clip0">
<rect width="13.7143" height="13.7143" fill="white" transform="translate(5.14355 5.14258)"/>
</clipPath>
</defs>
</svg>
