<svg width="24" height="24" viewBox="0 0 24 24" fill="none" xmlns="http://www.w3.org/2000/svg">
<path opacity="0.6" d="M17.4078 7.26222C17.806 6.864 17.806 6.21837 17.4078 5.82015C17.0095 5.42194 16.3639 5.42194 15.9657 5.82015L10.9185 10.8674C10.5203 11.2656 10.5203 11.9112 10.9185 12.3094C11.3167 12.7077 11.9623 12.7077 12.3605 12.3094L17.4078 7.26222ZM0.721031 12.4124C0.322816 12.8107 0.322816 13.4563 0.721031 13.8545L5.04722 18.1807C5.44543 18.5789 6.09107 18.5789 6.48928 18.1807C6.8875 17.7825 6.8875 17.1369 6.48928 16.7386L2.16309 12.4124C1.76488 12.0142 1.11925 12.0142 0.721031 12.4124Z" fill="#02C3B9"/>
<path d="M23.2026 5.79701C22.786 5.40827 22.136 5.42101 21.735 5.82579L13.7973 13.8391C12.6071 15.0406 10.6669 15.0452 9.47112 13.8494L8.03419 12.4124C7.63597 12.0142 6.99034 12.0142 6.59212 12.4124C6.19391 12.8107 6.19391 13.4563 6.59212 13.8545L8.75522 16.0176C10.3481 17.6105 12.9306 17.6105 14.5235 16.0176L23.2287 7.31239C23.6502 6.89083 23.6384 6.20379 23.2026 5.79701Z" fill="#02C3B9"/>
</svg>
