<svg width="34" height="34" viewBox="0 0 34 34" fill="none" xmlns="http://www.w3.org/2000/svg">
<g clip-path="url(#clip0)">
<path d="M31.0001 3.99994H30.0001V0.999986C30.0001 0.447724 29.5524 0 29.0001 0H21C19.3769 0 17.8591 0.98494 17 1.66976C16.1409 0.98494 14.6231 0 13.0001 0H4.99993C4.44767 0 3.99994 0.447724 3.99994 0.999986V3.99994H2.99996C1.34577 3.99994 0 5.34571 0 6.99964V24.9991C0 26.6533 1.34577 27.9991 2.99996 27.9991H7.99988V32.9987C7.99988 33.7959 8.89066 34.2734 9.55473 33.8309L18.3027 27.9991H31.0001C32.6543 27.9991 34 26.6533 34 24.9991V6.99964C34 5.34571 32.6543 3.99994 31.0001 3.99994ZM5.99991 1.99997H13.0001C14.2901 1.99997 15.8153 3.23316 16.2929 3.70708C16.6833 4.09748 17.3165 4.09748 17.7071 3.70708C18.1499 3.26403 19.7056 1.99997 21 1.99997H28.0001V6.33324C28.0001 9.45771 25.458 11.9996 22.3333 11.9996H21.0002C19.3769 11.9996 17.8591 12.9845 17 13.6693C16.1411 12.9845 14.6234 11.9996 13.0001 11.9996H11.6668C8.54229 11.9996 6.00017 9.45771 6.00017 6.33324V1.99997H5.99991ZM32.0001 24.9991C32.0001 25.5506 31.5513 25.9991 31.0001 25.9991H18C17.8026 25.9991 17.6096 26.0575 17.4454 26.1669L9.99986 31.1303V26.9991C9.99986 26.4468 9.55239 25.9991 8.99987 25.9991H2.99996C2.44847 25.9991 1.99997 25.5506 1.99997 24.9991V6.99964C1.99997 6.44842 2.44847 5.99991 2.99996 5.99991H3.99994V6.33298C3.99994 10.5604 7.43932 13.9995 11.6668 13.9995H13.0001C14.2901 13.9995 15.8153 15.2327 16.2929 15.7066C16.6835 16.0973 17.3167 16.0968 17.7071 15.7066C18.1499 15.2636 19.7056 13.9995 21 13.9995H22.3333C26.5607 13.9995 29.9998 10.5604 29.9998 6.33298V5.99991H30.9998C31.5513 5.99991 31.9998 6.44842 31.9998 6.99964V24.9991H32.0001Z" fill="#02C3B9"/>
<path d="M11.9999 9.99966C14.2427 9.99966 15.9999 8.68191 15.9999 6.9997C15.9999 5.31749 14.2427 4 11.9999 4C9.75691 4 8 5.31749 8 6.9997C8 8.68191 9.75691 9.99966 11.9999 9.99966ZM11.9999 5.99997C13.2207 5.99997 13.9999 6.59218 13.9999 6.9997C13.9999 7.40748 13.2207 7.99969 11.9999 7.99969C10.7789 7.99969 9.99971 7.40748 9.99971 6.9997C9.99971 6.59218 10.7789 5.99997 11.9999 5.99997Z" fill="#02C3B9"/>
<path d="M21.9999 9.99966C24.243 9.99966 25.9999 8.68191 25.9999 6.9997C25.9999 5.31749 24.243 4 21.9999 4C19.7572 4 18 5.31749 18 6.9997C18 8.68191 19.7572 9.99966 21.9999 9.99966ZM21.9999 5.99997C23.2209 5.99997 23.9999 6.59218 23.9999 6.9997C23.9999 7.40748 23.2209 7.99969 21.9999 7.99969C20.7792 7.99969 20 7.40748 20 6.9997C20 6.59218 20.7792 5.99997 21.9999 5.99997Z" fill="#02C3B9"/>
<path d="M13.0002 17.9995H6.99999C6.44772 17.9995 6 18.447 6 18.9992C6 19.5515 6.44772 19.9992 6.99999 19.9992H13.0002C13.5524 19.9992 14.0001 19.5515 14.0001 18.9992C14.0001 18.447 13.5524 17.9995 13.0002 17.9995Z" fill="#02C3B9"/>
<path d="M17 19.9992H19C19.5522 19.9992 19.9999 19.5518 19.9999 18.9995C19.9999 18.4472 19.5522 17.9995 19 17.9995H17C16.4477 17.9995 16 18.4472 16 18.9995C16 19.5518 16.4477 19.9992 17 19.9992Z" fill="#02C3B9"/>
<path d="M26.9999 17.9995H23C22.4477 17.9995 22 18.447 22 18.9992C22 19.5515 22.4477 19.9992 23 19.9992H26.9999C27.5525 19.9992 28.0002 19.5515 28.0002 18.9992C28.0002 18.447 27.5525 17.9995 26.9999 17.9995Z" fill="#02C3B9"/>
<path d="M11.0002 21.999H6.99998C6.44772 21.999 6 22.4467 6 22.999C6 23.5513 6.44772 23.999 6.99998 23.999H11.0002C11.5524 23.999 12.0002 23.5513 12.0002 22.999C12.0002 22.4467 11.5524 21.999 11.0002 21.999Z" fill="#02C3B9"/>
<path d="M20.9999 21.999H15C14.4477 21.999 14 22.4467 14 22.999C14 23.5513 14.4477 23.999 15 23.999H20.9999C21.5522 23.999 21.9999 23.5513 21.9999 22.999C21.9999 22.4467 21.5522 21.999 20.9999 21.999Z" fill="#02C3B9"/>
</g>
<defs>
<clipPath id="clip0">
<rect width="34" height="34" fill="white"/>
</clipPath>
</defs>
</svg>
