<svg width="32" height="34" viewBox="0 0 32 34" fill="none" xmlns="http://www.w3.org/2000/svg">
<path d="M5.59314 14.244C5.63968 14.244 5.68689 14.2391 5.73423 14.2288C6.60435 14.0405 7.75421 13.8009 8.93228 13.6174C9.29467 13.561 9.54259 13.2216 9.48622 12.8593C9.42978 12.4969 9.09043 12.2491 8.72804 12.3053C7.51578 12.4941 6.34123 12.7388 5.45337 12.931C5.09497 13.0085 4.86729 13.3619 4.94484 13.7204C5.01217 14.0315 5.28725 14.244 5.59314 14.244Z" fill="#02C3B9" stroke="#02C3B9"/>
<path d="M30.1325 29.1998C30.0403 29.1101 29.9442 29.0247 29.8447 28.9441C30.8367 23.9638 30.8367 18.7934 29.8447 13.813C29.9442 13.7325 30.0403 13.6471 30.1324 13.5573C30.856 12.8524 31.271 11.9458 31.271 11.0701C31.2711 10.4193 31.0332 9.82933 30.6014 9.40858C29.5526 8.38701 27.7039 8.58765 26.3923 9.86545C26.3057 9.94984 26.223 10.0377 26.1447 10.1285C23.8346 9.64906 21.4764 9.33209 19.1194 9.18422C19.1879 8.36224 18.8271 7.68035 18.3074 7.28157C17.6211 6.75492 16.7224 6.7105 15.9999 7.12096C14.5764 6.28915 12.7115 7.43183 12.8803 9.18422C10.5234 9.33209 8.16517 9.64906 5.85498 10.1285C5.77663 10.0376 5.69397 9.94977 5.60732 9.86532C4.29579 8.58765 2.44699 8.38707 1.3984 9.40858C0.966554 9.82926 0.728723 10.4193 0.728723 11.07C0.728723 11.9457 1.1437 12.8524 1.86735 13.5573C1.95951 13.6471 2.05565 13.7325 2.15511 13.813C1.16309 18.7935 1.16309 23.9636 2.15511 28.9441C2.05565 29.0246 1.95951 29.11 1.86735 29.1998C0.700505 30.3107 0.243632 32.1906 1.39846 33.3486C1.84816 33.7867 2.44493 34 3.08353 33.9999C3.93387 33.9999 4.85837 33.6215 5.60745 32.8918C5.6941 32.8074 5.77676 32.7195 5.85511 32.6287C12.522 34.0165 19.4778 34.0165 26.1447 32.6287C26.2231 32.7195 26.3058 32.8074 26.3924 32.8919C27.704 34.1697 29.5527 34.3702 30.6014 33.3486C31.0332 32.9278 31.2711 32.3378 31.271 31.687C31.271 30.8113 30.856 29.9048 30.1325 29.1998ZM14.5008 8.33515C14.8116 8.10124 15.2253 8.11 15.5304 8.41868C15.7777 8.67583 16.2222 8.67583 16.4694 8.41868C16.8108 8.0772 17.2326 8.13065 17.4992 8.33515C18.5451 9.18954 16.6592 10.9696 15.9999 11.278C15.583 11.06 14.8303 10.4343 14.4405 9.75928C14.0954 9.16138 14.1178 8.62902 14.5008 8.33515ZM29.6747 32.3974C29.1632 32.8956 28.0846 32.6864 27.319 31.9407C27.1851 31.8103 27.0657 31.6682 26.9637 31.5189C26.8115 31.2953 26.5391 31.1863 26.2745 31.2437C19.5314 32.7075 12.4682 32.7075 5.72511 31.2437C5.46072 31.1864 5.18816 31.2954 5.03591 31.5189C4.44286 32.4573 2.95678 33.0405 2.32502 32.3974C1.73649 31.7583 2.19794 30.7303 2.79391 30.1511C2.93388 30.0147 3.08652 29.8938 3.24746 29.7916C3.48118 29.6432 3.59824 29.3653 3.54127 29.0944C2.47176 24.0238 2.47176 18.7335 3.54127 13.6629C3.59824 13.392 3.48118 13.1142 3.24746 12.9658C3.08652 12.8635 2.93388 12.7426 2.79391 12.6062C2.33226 12.1565 2.05665 11.5823 2.05665 11.0701C2.05665 10.8654 2.10319 10.576 2.32502 10.3599C2.83641 9.86167 3.91515 10.0708 4.68063 10.8166C4.81448 10.947 4.93406 11.0891 5.03605 11.2386C5.18836 11.4619 5.46092 11.5711 5.72511 11.5135C8.22034 10.9735 10.7768 10.6288 13.3287 10.4882C13.9553 11.5281 15.1362 12.4475 15.828 12.6328C15.9406 12.663 16.0592 12.6631 16.1717 12.6328C16.8635 12.4474 18.0444 11.5281 18.6709 10.4882C21.2229 10.6289 23.7793 10.9735 26.2745 11.5136C26.5388 11.5711 26.8114 11.4621 26.9636 11.2387C27.0655 11.0891 27.1852 10.947 27.319 10.8167C28.0845 10.0709 29.1633 9.86166 29.6746 10.36C30.2632 10.9992 29.8017 12.0271 29.2057 12.6063C29.0659 12.7426 28.9133 12.8635 28.7524 12.9657C28.5186 13.1141 28.4016 13.392 28.4585 13.6629C29.528 18.7334 29.528 24.024 28.4585 29.0945C28.4016 29.3654 28.5186 29.6433 28.7523 29.7917C28.9134 29.894 29.066 30.0149 29.2058 30.1512C29.8012 30.7295 30.2636 31.7581 29.6747 32.3974Z" fill="#02C3B9" stroke="#02C3B9"/>
<path d="M21.7655 8.11374C21.8781 8.14395 21.9966 8.14395 22.1093 8.11374C23.1169 7.84377 24.8621 6.46466 25.7553 4.91742C26.9151 2.90874 26.1991 1.33083 25.2335 0.589981C24.2499 -0.164878 22.9431 -0.187519 21.9374 0.477107C20.9317 -0.187519 19.625 -0.164944 18.6413 0.589981C15.6966 2.95893 19.1913 7.24886 21.7655 8.11374ZM19.4496 1.64356C19.957 1.25421 20.8048 1.13722 21.4678 1.80012C21.715 2.05727 22.1596 2.05727 22.4068 1.80012C23.0696 1.13722 23.9176 1.25421 24.4251 1.64356C26.3091 3.16841 23.2889 6.20916 21.9373 6.77028C21.2313 6.47043 19.9309 5.39933 19.2693 4.25353C18.5403 2.9906 18.8845 2.07719 19.4496 1.64356Z" fill="#02C3B9" stroke="#02C3B9"/>
<path d="M21.3825 15.9061C19.4195 13.3077 15.2426 14.0653 14.2697 17.1716C12.9884 17.038 11.5758 17.4869 10.6175 18.7207C8.72354 17.9493 6.8282 18.7317 5.84128 20.018C4.77044 21.4136 4.37286 23.8961 6.77661 26.2999C8.54653 28.072 12.2114 29.9085 13.6754 29.4689C14.6652 28.8975 16.0139 27.2573 16.9337 25.4204C17.4254 25.9849 17.9044 26.4114 18.325 26.6543C19.7878 27.0939 23.4531 25.2581 25.2238 23.4853C27.6276 21.0815 27.23 18.5989 26.1591 17.2033C25.172 15.917 23.2765 15.1344 21.3825 15.9061ZM13.1631 28.2212C10.6154 27.9722 4.37678 24.2795 6.89486 20.8263C7.69175 19.7629 9.25764 19.3782 10.5132 20.1454C10.8309 20.3288 11.2368 20.2199 11.4202 19.9024C12.2712 18.4284 13.8177 18.237 14.8942 18.6829C18.8046 20.415 15.2386 26.7394 13.1631 28.2212ZM24.2848 22.5463C22.6483 24.1827 20.0395 25.2967 18.8386 25.4064C18.5209 25.1794 18.0526 24.7328 17.5228 24.0421C18.7178 20.8755 17.4309 18.3301 15.5532 17.5222C15.9645 16.375 16.9146 15.8236 17.7306 15.6915C18.6338 15.5453 19.8572 15.8353 20.5803 17.0876C20.7636 17.4051 21.1696 17.5141 21.4872 17.3306C22.9614 16.4796 24.3962 17.087 25.1056 18.0116C25.885 19.0275 26.0788 20.7523 24.2848 22.5463Z" fill="#02C3B9" stroke="#02C3B9"/>
<path d="M11.7964 13.2605C12.6774 13.2255 12.6767 11.9674 11.7964 11.9326H11.796C10.915 11.9678 10.9162 13.2259 11.7964 13.2605Z" fill="#02C3B9" stroke="#02C3B9"/>
</svg>
