<svg width="34" height="34" viewBox="0 0 34 34" fill="none" xmlns="http://www.w3.org/2000/svg">
<g clip-path="url(#clip0)">
<path d="M30.1568 20.5082H29.3983V16.4706C29.3983 14.9629 28.1717 13.7363 26.6641 13.7363H25.7476L28.4203 8.67407C28.6986 8.14693 28.7548 7.54302 28.5783 6.97364C28.4016 6.40359 28.0131 5.93655 27.4841 5.6585L17.2065 0.256577C16.1165 -0.316388 14.7623 0.10271 14.1877 1.19067L7.56398 13.7363H5.91389C4.40624 13.7363 3.17969 14.9629 3.17969 16.4706V31.2657C3.17969 32.7734 4.40624 34 5.91389 34H26.6641C28.1718 34 29.3984 32.7734 29.3984 31.2657V27.2281H30.1569C30.5237 27.2281 30.821 26.9307 30.821 26.564V21.1723C30.8209 20.8055 30.5236 20.5082 30.1568 20.5082ZM15.3622 1.81078C15.5954 1.36917 16.1455 1.19937 16.5886 1.43219L26.8663 6.83412C27.0808 6.94681 27.2383 7.136 27.3098 7.36677C27.3811 7.59681 27.3584 7.84085 27.2459 8.05396L24.2458 13.7363H22.4632L24.1577 10.527C24.24 10.371 24.257 10.1888 24.2047 10.0203C24.1525 9.85188 24.0354 9.71116 23.8794 9.62908C23.4444 9.40044 23.1247 9.01647 22.9796 8.54803C22.8347 8.08072 22.8808 7.58499 23.1093 7.15214C23.1917 6.99615 23.2086 6.81393 23.1563 6.64545C23.1041 6.47704 22.9871 6.33632 22.831 6.25424L19.3457 4.42246C19.0216 4.25212 18.6206 4.37624 18.4495 4.70024C17.9767 5.59581 16.8613 5.94034 15.9633 5.46844C15.6391 5.29811 15.2381 5.42229 15.067 5.74623L10.8485 13.7363H9.06585L15.3622 1.81078ZM21.7109 8.94123C21.8943 9.53305 22.239 10.0466 22.705 10.4338L20.9614 13.7363H12.3504L15.9646 6.89089C17.1607 7.22605 18.4561 6.82575 19.2526 5.87399L21.6859 7.15294C21.5215 7.734 21.5279 8.35073 21.7109 8.94123ZM28.0702 31.2657C28.0702 32.0411 27.4394 32.6718 26.6641 32.6718H5.91389C5.13858 32.6718 4.50784 32.0411 4.50784 31.2657V16.4706C4.50784 15.6952 5.13858 15.0645 5.91389 15.0645H26.6641C27.4394 15.0645 28.0702 15.6952 28.0702 16.4706V20.5082H25.4773C23.6246 20.5082 22.1173 22.0155 22.1173 23.8682C22.1173 25.7209 23.6246 27.2281 25.4773 27.2281H28.0702V31.2657ZM29.4928 25.8999H25.4772C24.3569 25.8999 23.4454 24.9884 23.4454 23.8681C23.4454 22.7478 24.3569 21.8363 25.4772 21.8363H29.4928V25.8999Z" fill="#02C3B9" stroke="#02C3B9"/>
</g>
<defs>
<clipPath id="clip0">
<rect width="34" height="34" fill="white"/>
</clipPath>
</defs>
</svg>
