<svg width="116" height="39" viewBox="0 0 116 39" fill="none" xmlns="http://www.w3.org/2000/svg">
<path d="M3.664 16V0.599999H0.848V16H3.664ZM12.3523 16V5.374H12.3743L20.1843 16H22.9123V0.599999H20.0963V11.204H20.0743L12.2423 0.599999H9.53628V16H12.3523ZM31.6324 16V9.488H39.4864V7.002H31.6324V3.064L39.6844 3.086V0.599999H28.8164V16H31.6324ZM47.5824 16V0.599999H44.7664V16H47.5824ZM56.2706 16V5.374H56.2926L64.1026 16H66.8306V0.599999H64.0146V11.204H63.9926L56.1606 0.599999H53.4546V16H56.2706ZM75.5507 16V0.599999H72.7347V16H75.5507ZM87.517 16V3.174H92.291V0.599999H79.905V3.174H84.701V16H87.517ZM103.528 16V10.214L109.424 0.599999H106.102L102.142 7.222L98.16 0.599999H94.816L100.712 10.214V16H103.528Z" fill="#FDF3FF"/>
<path d="M0.342 36.416C2.102 37.67 4.214 38.286 6.348 38.286C9.758 38.286 11.958 36.482 11.958 33.732C11.958 30.476 9.054 29.926 6.414 29.53C4.082 29.178 2.014 29.002 2.014 26.802C2.014 24.734 3.73 23.546 6.238 23.546C7.8 23.546 9.208 23.942 10.88 24.976L11.54 23.854C9.604 22.688 8.152 22.314 6.194 22.314C3.026 22.314 0.738 24.096 0.738 26.802C0.738 30.234 3.686 30.432 6.414 30.894C8.614 31.246 10.682 31.686 10.682 33.776C10.682 35.778 9.01 37.054 6.282 37.054C4.566 37.054 2.674 36.416 1.068 35.294L0.342 36.416ZM26.8852 38V23.832H32.2312V22.6H20.2412V23.832H25.6092V38H26.8852ZM41.4483 31.664C41.4483 36.042 43.9783 38.286 47.5643 38.286C51.1503 38.286 53.6803 36.042 53.6803 31.664V22.6H52.4043V31.554C52.4043 35.47 50.2923 37.054 47.5643 37.054C44.8363 37.054 42.7243 35.47 42.7243 31.554V22.6H41.4483V31.664ZM70.4862 38C74.8642 38 78.0763 34.744 78.0763 30.3C78.0763 25.856 74.8642 22.6 70.4862 22.6H64.8542V38H70.4862ZM66.1302 23.832H70.4642C74.2043 23.832 76.7782 26.67 76.7782 30.3C76.7782 33.93 74.2043 36.768 70.4642 36.768H66.1302V23.832ZM89.531 38V22.6H88.255V38H89.531ZM107.601 38.286C112.001 38.286 115.477 34.744 115.477 30.3C115.477 25.856 112.001 22.314 107.601 22.314C103.201 22.314 99.7471 25.856 99.7471 30.3C99.7471 34.744 103.201 38.286 107.601 38.286ZM107.601 37.054C103.905 37.054 101.023 33.952 101.023 30.3C101.023 26.648 103.905 23.546 107.601 23.546C111.319 23.546 114.179 26.648 114.179 30.3C114.179 33.952 111.319 37.054 107.601 37.054Z" fill="#8F8F8F"/>
</svg>
