<svg width="184" height="61" viewBox="0 0 184 61" fill="none" xmlns="http://www.w3.org/2000/svg">
<path d="M5.42 25V0.499998H0.94V25H5.42ZM19.2423 25V8.095H19.2773L31.7023 25H36.0423V0.499998H31.5623V17.37H31.5273L19.0673 0.499998H14.7623V25H19.2423ZM49.9151 25V14.64H62.4101V10.685H49.9151V4.42L62.7251 4.455V0.499998H45.4351V25H49.9151ZM75.2901 25V0.499998H70.8101V25H75.2901ZM89.1124 25V8.095H89.1474L101.572 25H105.912V0.499998H101.432V17.37H101.397L88.9374 0.499998H84.6324V25H89.1124ZM119.785 25V0.499998H115.305V25H119.785ZM138.823 25V4.595H146.418V0.499998H126.713V4.595H134.343V25H138.823ZM164.295 25V15.795L173.675 0.499998H168.39L162.09 11.035L155.755 0.499998H150.435L159.815 15.795V25H164.295Z" fill="#FDF3FF"/>
<path d="M0.135 57.48C2.935 59.475 6.295 60.455 9.69 60.455C15.115 60.455 18.615 57.585 18.615 53.21C18.615 48.03 13.995 47.155 9.795 46.525C6.085 45.965 2.795 45.685 2.795 42.185C2.795 38.895 5.525 37.005 9.515 37.005C12 37.005 14.24 37.635 16.9 39.28L17.95 37.495C14.87 35.64 12.56 35.045 9.445 35.045C4.405 35.045 0.765 37.88 0.765 42.185C0.765 47.645 5.455 47.96 9.795 48.695C13.295 49.255 16.585 49.955 16.585 53.28C16.585 56.465 13.925 58.495 9.585 58.495C6.855 58.495 3.845 57.48 1.29 55.695L0.135 57.48ZM42.3628 60V37.46H50.8678V35.5H31.7928V37.46H40.3328V60H42.3628ZM65.5314 49.92C65.5314 56.885 69.5564 60.455 75.2614 60.455C80.9664 60.455 84.9914 56.885 84.9914 49.92V35.5H82.9614V49.745C82.9614 55.975 79.6014 58.495 75.2614 58.495C70.9214 58.495 67.5614 55.975 67.5614 49.745V35.5H65.5314V49.92ZM111.728 60C118.693 60 123.803 54.82 123.803 47.75C123.803 40.68 118.693 35.5 111.728 35.5H102.768V60H111.728ZM104.798 37.46H111.693C117.643 37.46 121.738 41.975 121.738 47.75C121.738 53.525 117.643 58.04 111.693 58.04H104.798V37.46ZM142.027 60V35.5H139.997V60H142.027ZM170.774 60.455C177.774 60.455 183.304 54.82 183.304 47.75C183.304 40.68 177.774 35.045 170.774 35.045C163.774 35.045 158.279 40.68 158.279 47.75C158.279 54.82 163.774 60.455 170.774 60.455ZM170.774 58.495C164.894 58.495 160.309 53.56 160.309 47.75C160.309 41.94 164.894 37.005 170.774 37.005C176.689 37.005 181.239 41.94 181.239 47.75C181.239 53.56 176.689 58.495 170.774 58.495Z" fill="#8F8F8F"/>
</svg>
