<svg width="24" height="24" viewBox="0 0 24 24" fill="none" xmlns="http://www.w3.org/2000/svg">
<circle cx="12" cy="12" r="12" fill="#675DA9"/>
<g clip-path="url(#clip0)">
<path d="M17.1153 6.48089C16.775 6.16809 15.3976 5.16658 12.3272 5.15286C12.3272 5.15286 8.70808 4.93335 6.94378 6.55223C5.96148 7.53453 5.61575 8.96957 5.58008 10.7531C5.54441 12.5338 5.49776 15.8731 8.71631 16.7786H8.71906L8.71631 18.1588C8.71631 18.1588 8.69711 18.7185 9.06478 18.831C9.50929 18.9682 9.7727 18.5429 10.198 18.0847C10.4312 17.8322 10.7523 17.4646 10.9965 17.1819C13.197 17.3658 14.89 16.9432 15.0821 16.8801C15.5266 16.7347 18.0427 16.4137 18.4515 13.0744C18.8741 9.63907 18.2457 7.46319 17.1153 6.48089ZM17.4884 12.8329C17.1427 15.6207 15.104 15.7963 14.7281 15.917C14.569 15.9692 13.0818 16.3396 11.2105 16.2161C11.2105 16.2161 9.8166 17.8981 9.38307 18.3344C9.31447 18.403 9.2349 18.4304 9.18277 18.4167C9.10868 18.3975 9.08673 18.3097 9.08948 18.1807C9.08948 17.9941 9.10045 15.8841 9.10045 15.8841C9.09771 15.8841 9.09771 15.8841 9.10045 15.8841C6.3758 15.1295 6.53494 12.2869 6.56513 10.7997C6.59531 9.31255 6.87518 8.09153 7.70657 7.27112C9.19649 5.92114 12.2724 6.12144 12.2724 6.12144C14.868 6.13242 16.111 6.91442 16.3991 7.17508C17.3567 7.99824 17.8451 9.9601 17.4884 12.8329Z" fill="#FDF3FF"/>
<path d="M13.5922 10.8519C13.5016 10.8519 13.4248 10.7805 13.4193 10.6872C13.3891 10.0973 13.112 9.8092 12.5468 9.77901C12.4507 9.77353 12.3766 9.69121 12.3821 9.59517C12.3876 9.49914 12.4699 9.42506 12.566 9.43054C13.3123 9.4717 13.7294 9.89974 13.7678 10.668C13.7733 10.7641 13.6992 10.8464 13.6031 10.8491C13.5977 10.8519 13.5949 10.8519 13.5922 10.8519Z" fill="#FDF3FF"/>
<path d="M14.4812 11.1483H14.4784C14.3824 11.1455 14.3056 11.0659 14.3083 10.9699C14.322 10.3772 14.1519 9.89706 13.7897 9.50194C13.4303 9.10683 12.9336 8.89281 12.2778 8.84616C12.1818 8.83793 12.1105 8.75561 12.1187 8.65958C12.1269 8.56354 12.2092 8.4922 12.3053 8.50043C13.0461 8.55531 13.6306 8.81323 14.0476 9.26871C14.4674 9.72694 14.6705 10.3004 14.6568 10.9781C14.654 11.0742 14.5745 11.1483 14.4812 11.1483Z" fill="#FDF3FF"/>
<path d="M15.3921 11.5049C15.2961 11.5049 15.2193 11.4281 15.2193 11.332C15.211 10.2701 14.9065 9.4607 14.2863 8.85431C13.6745 8.25615 12.898 7.95158 11.9842 7.94335C11.8882 7.94335 11.8114 7.86378 11.8114 7.76774C11.8114 7.67171 11.891 7.59488 11.9842 7.59488C12.9912 7.60311 13.8473 7.9406 14.5251 8.60462C15.2055 9.26863 15.554 10.1851 15.565 11.3265C15.5677 11.4253 15.4909 11.5049 15.3921 11.5049C15.3949 11.5049 15.3949 11.5049 15.3921 11.5049Z" fill="#FDF3FF"/>
<path d="M12.5879 13.0003C12.5879 13.0003 12.8321 13.0222 12.9638 12.8603L13.219 12.5393C13.3425 12.3802 13.6415 12.2786 13.9324 12.4405C14.0943 12.5311 14.3879 12.7122 14.569 12.8466C14.7638 12.9893 15.1589 13.3186 15.1616 13.3213C15.351 13.4804 15.3949 13.7137 15.2659 13.9634C15.2659 13.9634 15.2659 13.9661 15.2659 13.9688C15.1342 14.2021 14.9559 14.4216 14.7336 14.6246C14.7309 14.6246 14.7309 14.6274 14.7281 14.6274C14.5443 14.781 14.3632 14.8688 14.1876 14.888C14.1656 14.8935 14.1409 14.8935 14.108 14.8935C14.0312 14.8935 13.9543 14.8826 13.8775 14.8579L13.872 14.8496C13.5976 14.7728 13.1422 14.5807 12.3849 14.1609C11.891 13.8893 11.4821 13.6121 11.1337 13.335C10.9498 13.1896 10.7632 13.0277 10.5712 12.8356C10.5657 12.8301 10.5574 12.8219 10.552 12.8164C10.5465 12.8109 10.5382 12.8027 10.5327 12.7972C10.5273 12.7917 10.519 12.7835 10.5135 12.778C10.5081 12.7725 10.4998 12.7643 10.4943 12.7588C10.305 12.5667 10.1404 12.3802 9.99495 12.1963C9.71782 11.8506 9.44069 11.439 9.16905 10.9451C8.74924 10.1851 8.55717 9.72958 8.48034 9.45794L8.47211 9.45245C8.44742 9.37563 8.43644 9.2988 8.43644 9.22197C8.43644 9.18904 8.43644 9.16435 8.44193 9.1424C8.46388 8.96405 8.55168 8.7857 8.70259 8.60186C8.70259 8.59911 8.70534 8.59911 8.70534 8.59637C8.90838 8.37137 9.12789 8.19577 9.36112 8.06406C9.36112 8.06406 9.36387 8.06406 9.36661 8.06406C9.61356 7.9351 9.84678 7.979 10.0087 8.16833C10.0087 8.16833 10.3407 8.56619 10.4834 8.761C10.6178 8.94484 10.7989 9.23569 10.8895 9.39758C11.0513 9.68843 10.9498 9.98751 10.7907 10.111L10.4696 10.3662C10.3078 10.4979 10.3297 10.7421 10.3297 10.7421C10.3297 10.7421 10.8044 12.5475 12.5879 13.0003Z" fill="#FDF3FF"/>
</g>
<defs>
<clipPath id="clip0">
<rect width="13.7143" height="13.7143" fill="white" transform="translate(5.14355 5.14287)"/>
</clipPath>
</defs>
</svg>
