<svg width="28" height="28" viewBox="0 0 28 28" fill="none" xmlns="http://www.w3.org/2000/svg">
<circle cx="14" cy="14" r="14" fill="#675DA9"/>
<path d="M19.9668 7.56102C19.5699 7.19609 17.9629 6.02766 14.3808 6.01166C14.3808 6.01166 10.1585 5.75556 8.1001 7.64425C6.95408 8.79027 6.55073 10.4645 6.50912 12.5452C6.4675 14.6228 6.41308 18.5186 10.1681 19.575H10.1713L10.1681 21.1852C10.1681 21.1852 10.1456 21.8382 10.5746 21.9695C11.0932 22.1295 11.4005 21.6334 11.8967 21.0988C12.1688 20.8043 12.5433 20.3753 12.8282 20.0456C15.3956 20.2601 17.3707 19.7671 17.5948 19.6935C18.1134 19.5238 21.0488 19.1493 21.5258 15.2534C22.0188 11.2456 21.2857 8.70704 19.9668 7.56102ZM20.4022 14.9717C19.9988 18.2241 17.6204 18.429 17.1818 18.5698C16.9962 18.6307 15.2611 19.0628 13.0779 18.9188C13.0779 18.9188 11.4517 20.8811 10.9459 21.3901C10.8659 21.4701 10.7731 21.5021 10.7123 21.4861C10.6258 21.4637 10.6002 21.3613 10.6034 21.2108C10.6034 20.9931 10.6162 18.5314 10.6162 18.5314C10.613 18.5314 10.613 18.5314 10.6162 18.5314C7.43746 17.6511 7.62312 14.3347 7.65834 12.5997C7.69355 10.8646 8.02007 9.44011 8.99002 8.48296C10.7283 6.90798 14.3168 7.14167 14.3168 7.14167C17.3451 7.15447 18.7952 8.06681 19.1313 8.37092C20.2485 9.33127 20.8183 11.6201 20.4022 14.9717Z" fill="#FDF3FF"/>
<path d="M15.8565 12.6605C15.7509 12.6605 15.6613 12.5773 15.6549 12.4684C15.6197 11.7802 15.2963 11.444 14.6369 11.4088C14.5249 11.4024 14.4384 11.3064 14.4448 11.1944C14.4512 11.0823 14.5473 10.9959 14.6593 11.0023C15.53 11.0503 16.0166 11.5497 16.0614 12.446C16.0678 12.5581 15.9814 12.6541 15.8694 12.6573C15.863 12.6605 15.8597 12.6605 15.8565 12.6605Z" fill="#FDF3FF"/>
<path d="M16.8937 13.0063H16.8905C16.7785 13.0031 16.6888 12.9103 16.692 12.7982C16.708 12.1068 16.5096 11.5466 16.087 11.0856C15.6677 10.6246 15.0883 10.3749 14.3232 10.3205C14.2111 10.3109 14.1279 10.2149 14.1375 10.1028C14.1471 9.99079 14.2431 9.90756 14.3552 9.91716C15.2195 9.98118 15.9014 10.2821 16.3879 10.8135C16.8777 11.3481 17.1146 12.0171 17.0986 12.8078C17.0954 12.9199 17.0026 13.0063 16.8937 13.0063Z" fill="#FDF3FF"/>
<path d="M17.9565 13.4223C17.8445 13.4223 17.7548 13.3327 17.7548 13.2207C17.7452 11.9818 17.3899 11.0375 16.6664 10.33C15.9526 9.63216 15.0466 9.27683 13.9806 9.26723C13.8686 9.26723 13.779 9.17439 13.779 9.06235C13.779 8.95031 13.8718 8.86068 13.9806 8.86068C15.1555 8.87028 16.1542 9.26402 16.9449 10.0387C17.7388 10.8134 18.1454 11.8826 18.1582 13.2143C18.1614 13.3295 18.0717 13.4223 17.9565 13.4223C17.9597 13.4223 17.9597 13.4223 17.9565 13.4223Z" fill="#FDF3FF"/>
<path d="M14.6849 15.167C14.6849 15.167 14.9698 15.1926 15.1235 15.0037L15.4212 14.6292C15.5652 14.4435 15.9142 14.3251 16.2535 14.5139C16.4424 14.6196 16.7849 14.8308 16.9962 14.9877C17.2234 15.1542 17.6844 15.5383 17.6876 15.5415C17.9085 15.7272 17.9597 15.9993 17.8093 16.2906C17.8093 16.2906 17.8093 16.2938 17.8093 16.297C17.6556 16.5691 17.4475 16.8252 17.1882 17.0621C17.185 17.0621 17.185 17.0653 17.1818 17.0653C16.9673 17.2445 16.7561 17.347 16.5512 17.3694C16.5256 17.3758 16.4968 17.3758 16.4584 17.3758C16.3687 17.3758 16.2791 17.363 16.1895 17.3342L16.1831 17.3246C15.8629 17.2349 15.3315 17.0108 14.448 16.5211C13.8718 16.2041 13.3948 15.8808 12.9883 15.5575C12.7738 15.3878 12.5561 15.199 12.332 14.9749C12.3256 14.9685 12.316 14.9589 12.3096 14.9525C12.3032 14.9461 12.2936 14.9365 12.2872 14.9301C12.2808 14.9237 12.2712 14.9141 12.2648 14.9077C12.2584 14.9013 12.2488 14.8917 12.2424 14.8853C12.0215 14.6612 11.8295 14.4435 11.6598 14.229C11.3365 13.8257 11.0132 13.3455 10.6962 12.7693C10.2065 11.8826 9.98239 11.3512 9.89276 11.0343L9.88315 11.0279C9.85434 10.9382 9.84154 10.8486 9.84154 10.759C9.84154 10.7205 9.84154 10.6917 9.84794 10.6661C9.87355 10.458 9.97599 10.25 10.1521 10.0355C10.1521 10.0323 10.1553 10.0323 10.1553 10.0291C10.3921 9.76659 10.6482 9.56171 10.9203 9.40806C10.9203 9.40806 10.9235 9.40806 10.9267 9.40806C11.2148 9.2576 11.4869 9.30882 11.6758 9.5297C11.6758 9.5297 12.0631 9.99387 12.2296 10.2212C12.3865 10.4356 12.5977 10.775 12.7034 10.9638C12.8923 11.3032 12.7738 11.6521 12.5881 11.7961L12.2136 12.0938C12.0247 12.2475 12.0503 12.5324 12.0503 12.5324C12.0503 12.5324 12.6041 14.6388 14.6849 15.167Z" fill="#FDF3FF"/>
</svg>
