<svg width="24" height="24" viewBox="0 0 24 24" fill="none" xmlns="http://www.w3.org/2000/svg">
<circle cx="12" cy="12" r="12" fill="#436EAB"/>
<path d="M18.7851 15.2203C18.7685 15.1845 18.753 15.1547 18.7386 15.1309C18.5007 14.7017 18.046 14.1749 17.3748 13.5503L17.3606 13.536L17.3535 13.529L17.3464 13.5218H17.3391C17.0345 13.231 16.8416 13.0354 16.7608 12.9353C16.613 12.7446 16.5799 12.5515 16.6607 12.3559C16.7178 12.2081 16.9322 11.896 17.3034 11.4192C17.4986 11.1665 17.6532 10.9639 17.7674 10.8113C18.591 9.7147 18.9481 9.01394 18.8386 8.70878L18.796 8.63747C18.7674 8.59453 18.6936 8.55526 18.5748 8.51944C18.4556 8.48369 18.3033 8.47778 18.1177 8.5016L16.0613 8.51583C16.0279 8.50401 15.9804 8.50511 15.9184 8.51944C15.8565 8.53376 15.8255 8.54095 15.8255 8.54095L15.7897 8.55886L15.7613 8.58038C15.7375 8.59461 15.7113 8.61963 15.6828 8.6554C15.6543 8.69104 15.6305 8.73287 15.6115 8.78054C15.3876 9.35743 15.1331 9.8938 14.8474 10.3896C14.6713 10.6853 14.5095 10.9415 14.3618 11.1584C14.2142 11.3753 14.0905 11.5351 13.9906 11.6375C13.8905 11.74 13.8003 11.8222 13.7192 11.8842C13.6382 11.9463 13.5764 11.9725 13.5336 11.9629C13.4907 11.9533 13.4503 11.9438 13.4121 11.9343C13.3455 11.8913 13.2919 11.8329 13.2515 11.7591C13.211 11.6852 13.1837 11.5922 13.1694 11.4801C13.1552 11.368 13.1468 11.2716 13.1444 11.1905C13.1421 11.1095 13.1432 10.995 13.148 10.8472C13.153 10.6993 13.1552 10.5993 13.1552 10.5468C13.1552 10.3656 13.1587 10.169 13.1658 9.95679C13.173 9.74463 13.1788 9.57653 13.1837 9.45269C13.1885 9.32873 13.1908 9.19757 13.1908 9.05931C13.1908 8.92104 13.1824 8.8126 13.1658 8.7339C13.1494 8.6553 13.1242 8.579 13.091 8.50503C13.0576 8.43114 13.0087 8.37398 12.9446 8.3334C12.8804 8.29287 12.8005 8.26071 12.7054 8.23682C12.4531 8.17963 12.1318 8.14869 11.7414 8.14389C10.856 8.13437 10.2871 8.19163 10.0348 8.31559C9.93486 8.36797 9.8444 8.43953 9.76352 8.53006C9.67781 8.63499 9.66585 8.69225 9.72773 8.70166C10.0134 8.74452 10.2156 8.84705 10.3346 9.00913L10.3775 9.09503C10.4109 9.157 10.4442 9.26671 10.4775 9.42401C10.5108 9.58132 10.5323 9.75533 10.5418 9.94595C10.5655 10.294 10.5655 10.592 10.5418 10.8399C10.5179 11.0879 10.4954 11.2809 10.4739 11.4192C10.4525 11.5575 10.4203 11.6695 10.3775 11.7553C10.3346 11.8411 10.3061 11.8936 10.2918 11.9126C10.2775 11.9316 10.2656 11.9436 10.2562 11.9483C10.1943 11.9721 10.1299 11.9842 10.0633 11.9842C9.99663 11.9842 9.91575 11.9508 9.82056 11.884C9.7254 11.8172 9.62664 11.7255 9.52427 11.6087C9.42191 11.4918 9.30647 11.3285 9.17789 11.1188C9.04942 10.909 8.91611 10.6611 8.77806 10.3751L8.66384 10.1676C8.59244 10.0341 8.4949 9.83982 8.37113 9.5848C8.24728 9.32968 8.13781 9.0829 8.04265 8.84452C8.00461 8.7444 7.94746 8.66817 7.87131 8.61572L7.83557 8.59421C7.81181 8.57517 7.77367 8.55496 7.72135 8.53341C7.66896 8.5119 7.61429 8.49647 7.55711 8.48697L5.60063 8.5012C5.4007 8.5012 5.26505 8.54656 5.19362 8.63716L5.16504 8.68002C5.15076 8.70389 5.14355 8.74202 5.14355 8.79449C5.14355 8.84695 5.15784 8.91132 5.18642 8.98754C5.47203 9.65984 5.78263 10.3082 6.11821 10.9328C6.45379 11.5573 6.7454 12.0604 6.99287 12.4416C7.24039 12.8231 7.49269 13.1831 7.74976 13.5215C8.00684 13.86 8.177 14.077 8.26026 14.1723C8.34362 14.2678 8.40909 14.3392 8.45669 14.3868L8.63523 14.5584C8.74948 14.6729 8.91724 14.81 9.1386 14.9696C9.36001 15.1294 9.60513 15.2867 9.87408 15.4418C10.1431 15.5966 10.456 15.723 10.8131 15.8207C11.1701 15.9185 11.5176 15.9578 11.8556 15.9388H12.6768C12.8433 15.9244 12.9695 15.872 13.0552 15.7814L13.0837 15.7456C13.1028 15.7171 13.1206 15.6729 13.1371 15.6134C13.1539 15.5538 13.1622 15.4882 13.1622 15.4168C13.1573 15.2118 13.1729 15.0271 13.2085 14.8626C13.2441 14.6982 13.2846 14.5742 13.33 14.4907C13.3753 14.4073 13.4265 14.3369 13.4835 14.2799C13.5405 14.2227 13.5812 14.1881 13.6051 14.1761C13.6288 14.1641 13.6477 14.156 13.662 14.1511C13.7762 14.113 13.9107 14.1499 14.0655 14.262C14.2203 14.3741 14.3654 14.5124 14.5012 14.6768C14.6368 14.8414 14.7998 15.026 14.9902 15.231C15.1807 15.4361 15.3473 15.5885 15.49 15.6888L15.6328 15.7746C15.7281 15.8318 15.8519 15.8843 16.0043 15.932C16.1563 15.9796 16.2896 15.9915 16.404 15.9677L18.2319 15.9391C18.4127 15.9391 18.5534 15.9092 18.6532 15.8497C18.7531 15.7901 18.8125 15.7244 18.8317 15.653C18.8508 15.5815 18.8518 15.5004 18.8353 15.4097C18.8184 15.3193 18.8017 15.256 18.7851 15.2203Z" fill="#FDF3FF"/>
</svg>
