<svg width="28" height="28" viewBox="0 0 28 28" fill="none" xmlns="http://www.w3.org/2000/svg">
<circle cx="14" cy="14" r="14" fill="#436EAB"/>
<path d="M21.9151 17.757C21.8958 17.7152 21.8777 17.6805 21.8609 17.6527C21.5833 17.152 21.0528 16.5373 20.2698 15.8087L20.2533 15.792L20.245 15.7838L20.2366 15.7754H20.2282C19.8728 15.4361 19.6478 15.208 19.5535 15.0911C19.3811 14.8686 19.3424 14.6434 19.4367 14.4152C19.5033 14.2428 19.7534 13.8787 20.1864 13.3224C20.4142 13.0275 20.5946 12.7912 20.7279 12.6132C21.6887 11.3338 22.1053 10.5163 21.9775 10.1602L21.9279 10.077C21.8945 10.0269 21.8084 9.98112 21.6698 9.93933C21.5308 9.89763 21.3531 9.89073 21.1364 9.91852L18.7373 9.93512C18.6985 9.92133 18.643 9.92261 18.5707 9.93933C18.4984 9.95605 18.4623 9.96443 18.4623 9.96443L18.4206 9.98533L18.3874 10.0104C18.3596 10.027 18.3291 10.0562 18.2957 10.098C18.2626 10.1395 18.2348 10.1883 18.2126 10.244C17.9514 10.917 17.6545 11.5427 17.3212 12.1212C17.1157 12.4661 16.9269 12.765 16.7546 13.0181C16.5825 13.2712 16.4381 13.4576 16.3215 13.5771C16.2048 13.6967 16.0995 13.7925 16.0049 13.8649C15.9104 13.9373 15.8383 13.9679 15.7884 13.9567C15.7384 13.9455 15.6913 13.9344 15.6466 13.9233C15.5689 13.8732 15.5064 13.8051 15.4593 13.7189C15.412 13.6327 15.3801 13.5242 15.3635 13.3935C15.3469 13.2627 15.3371 13.1501 15.3343 13.0555C15.3317 12.9611 15.3329 12.8274 15.3385 12.655C15.3443 12.4825 15.3469 12.3658 15.3469 12.3046C15.3469 12.0932 15.351 11.8638 15.3593 11.6162C15.3677 11.3687 15.3745 11.1726 15.3802 11.0281C15.3858 10.8835 15.3884 10.7305 15.3884 10.5692C15.3884 10.4079 15.3786 10.2814 15.3593 10.1895C15.3401 10.0978 15.3107 10.0088 15.272 9.92253C15.2331 9.83632 15.1761 9.76963 15.1012 9.72229C15.0263 9.67501 14.9331 9.63748 14.8222 9.60961C14.5278 9.54289 14.153 9.5068 13.6975 9.50119C12.6645 9.49008 12.0008 9.55689 11.7065 9.70151C11.5899 9.76262 11.4843 9.84611 11.39 9.95172C11.29 10.0741 11.276 10.1409 11.3482 10.1519C11.6815 10.2019 11.9174 10.3215 12.0563 10.5106L12.1063 10.6109C12.1452 10.6831 12.1841 10.8111 12.223 10.9947C12.2618 11.1782 12.2869 11.3812 12.2979 11.6036C12.3256 12.0097 12.3256 12.3573 12.2979 12.6465C12.2701 12.9358 12.2438 13.1611 12.2188 13.3224C12.1937 13.4837 12.1563 13.6144 12.1063 13.7145C12.0563 13.8146 12.023 13.8758 12.0063 13.898C11.9896 13.9202 11.9757 13.9342 11.9647 13.9397C11.8925 13.9674 11.8174 13.9815 11.7397 13.9815C11.6619 13.9815 11.5676 13.9426 11.4565 13.8646C11.3455 13.7867 11.2303 13.6797 11.1108 13.5434C10.9914 13.4071 10.8567 13.2166 10.7067 12.9719C10.5568 12.7272 10.4013 12.4379 10.2403 12.1042L10.107 11.8622C10.0237 11.7065 9.9099 11.4798 9.7655 11.1823C9.62101 10.8846 9.4933 10.5967 9.38228 10.3186C9.3379 10.2018 9.27123 10.1129 9.18238 10.0517L9.14069 10.0266C9.11297 10.0044 9.06847 9.98077 9.00743 9.95564C8.9463 9.93053 8.88252 9.91253 8.81582 9.90146L6.53326 9.91806C6.30001 9.91806 6.14175 9.97098 6.05841 10.0767L6.02506 10.1267C6.0084 10.1545 6 10.199 6 10.2602C6 10.3214 6.01666 10.3965 6.05001 10.4855C6.38322 11.2698 6.74558 12.0262 7.13709 12.7549C7.5286 13.4835 7.86882 14.0705 8.15753 14.5152C8.44631 14.9603 8.74066 15.3803 9.04058 15.7751C9.3405 16.17 9.53902 16.4231 9.63616 16.5343C9.73341 16.6457 9.80979 16.729 9.86532 16.7846L10.0736 16.9848C10.2069 17.1184 10.4026 17.2783 10.6609 17.4646C10.9192 17.651 11.2052 17.8345 11.519 18.0154C11.8328 18.1961 12.1979 18.3435 12.6145 18.4575C13.031 18.5716 13.4364 18.6174 13.8307 18.5953H14.7887C14.983 18.5785 15.1302 18.5173 15.2303 18.4117L15.2634 18.3698C15.2857 18.3366 15.3066 18.2851 15.3259 18.2157C15.3453 18.1461 15.355 18.0695 15.355 17.9862C15.3493 17.7471 15.3675 17.5316 15.4091 17.3397C15.4506 17.1479 15.4979 17.0032 15.5508 16.9058C15.6037 16.8085 15.6634 16.7264 15.7299 16.6598C15.7965 16.5931 15.8439 16.5527 15.8717 16.5388C15.8994 16.5248 15.9215 16.5153 15.9382 16.5096C16.0714 16.4651 16.2283 16.5082 16.409 16.639C16.5895 16.7698 16.7588 16.9312 16.9172 17.123C17.0755 17.315 17.2657 17.5304 17.4878 17.7695C17.71 18.0087 17.9043 18.1866 18.0709 18.3035L18.2374 18.4037C18.3487 18.4705 18.4931 18.5317 18.6708 18.5873C18.8482 18.6428 19.0037 18.6568 19.1372 18.629L21.2697 18.5957C21.4807 18.5957 21.6448 18.5607 21.7612 18.4913C21.8779 18.4217 21.9472 18.3451 21.9695 18.2618C21.9918 18.1784 21.993 18.0838 21.9737 17.978C21.954 17.8725 21.9345 17.7987 21.9151 17.757Z" fill="#FDF3FF"/>
</svg>
