<svg width="28" height="28" viewBox="0 0 28 28" fill="none" xmlns="http://www.w3.org/2000/svg">
<circle cx="14" cy="14" r="14" fill="#0DC143"/>
<path d="M19.3338 8.68919C17.9441 7.27027 16.0232 6.5 14.0613 6.5C9.89237 6.5 6.54087 9.86486 6.58174 13.9595C6.58174 15.2568 6.94959 16.5135 7.56267 17.6486L6.5 21.5L10.4646 20.4865C11.5681 21.0946 12.7943 21.3784 14.0204 21.3784C18.1485 21.3784 21.5 18.0135 21.5 13.9189C21.5 11.9324 20.7234 10.0676 19.3338 8.68919ZM14.0613 20.1216C12.9578 20.1216 11.8542 19.8378 10.9142 19.2703L10.6689 19.1486L8.29837 19.7568L8.91144 17.4459L8.74796 17.2027C6.94959 14.3243 7.8079 10.5135 10.7507 8.72973C13.6935 6.94595 17.4945 7.7973 19.2929 10.7162C21.0913 13.6351 20.233 17.4054 17.2902 19.1892C16.3501 19.7973 15.2057 20.1216 14.0613 20.1216ZM17.658 15.6216L17.2084 15.4189C17.2084 15.4189 16.5545 15.1351 16.1458 14.9324C16.1049 14.9324 16.064 14.8919 16.0232 14.8919C15.9005 14.8919 15.8188 14.9324 15.7371 14.973C15.7371 14.973 15.6962 15.0135 15.124 15.6622C15.0831 15.7432 15.0014 15.7838 14.9196 15.7838H14.8787C14.8379 15.7838 14.7561 15.7432 14.7153 15.7027L14.5109 15.6216C14.0613 15.4189 13.6526 15.1757 13.3256 14.8514C13.2439 14.7703 13.1213 14.6892 13.0395 14.6081C12.7534 14.3243 12.4673 14 12.2629 13.6351L12.2221 13.5541C12.1812 13.5135 12.1812 13.473 12.1403 13.3919C12.1403 13.3108 12.1403 13.2297 12.1812 13.1892C12.1812 13.1892 12.3447 12.9865 12.4673 12.8649C12.549 12.7838 12.5899 12.6622 12.6717 12.5811C12.7534 12.4595 12.7943 12.2973 12.7534 12.1757C12.7125 11.973 12.2221 10.8784 12.0995 10.6351C12.0177 10.5135 11.936 10.473 11.8134 10.4324H11.6907C11.609 10.4324 11.4864 10.4324 11.3638 10.4324C11.282 10.4324 11.2003 10.473 11.1185 10.473L11.0777 10.5135C10.9959 10.5541 10.9142 10.6351 10.8324 10.6757C10.7507 10.7568 10.7098 10.8378 10.6281 10.9189C10.342 11.2838 10.1785 11.7297 10.1785 12.1757C10.1785 12.5 10.2602 12.8243 10.3828 13.1081L10.4237 13.2297C10.7916 14 11.282 14.6892 11.936 15.2973L12.0995 15.4595C12.2221 15.5811 12.3447 15.6622 12.4264 15.7838C13.2847 16.5135 14.2657 17.0405 15.3692 17.3243C15.4918 17.3649 15.6553 17.3649 15.7779 17.4054C15.9005 17.4054 16.064 17.4054 16.1866 17.4054C16.391 17.4054 16.6362 17.3243 16.7997 17.2432C16.9223 17.1622 17.0041 17.1622 17.0858 17.0811L17.1676 17C17.2493 16.9189 17.3311 16.8784 17.4128 16.7973C17.4946 16.7162 17.5763 16.6351 17.6172 16.5541C17.6989 16.3919 17.7398 16.1892 17.7807 15.9865C17.7807 15.9054 17.7807 15.7838 17.7807 15.7027C17.7807 15.7027 17.7398 15.6622 17.658 15.6216Z" fill="#FDF3FF"/>
</svg>
