<svg width="24" height="24" viewBox="0 0 24 24" fill="none" xmlns="http://www.w3.org/2000/svg">
<circle cx="12" cy="12" r="12" fill="#0DC143"/>
<g clip-path="url(#clip0)">
<path d="M16.5727 7.44789C15.3815 6.23167 13.735 5.57144 12.0534 5.57144C8.48001 5.57144 5.6073 8.45561 5.64233 11.9653C5.64233 13.0772 5.95763 14.1545 6.48313 15.1274L5.57227 18.4286L8.97047 17.5599C9.91637 18.0811 10.9674 18.3243 12.0184 18.3243C15.5567 18.3243 18.4294 15.4402 18.4294 11.9305C18.4294 10.2278 17.7638 8.62936 16.5727 7.44789ZM12.0534 17.2471C11.1075 17.2471 10.1616 17.0039 9.35584 16.5174L9.14564 16.4131L7.11372 16.9344L7.63922 14.9537L7.49909 14.7452C5.95763 12.278 6.69332 9.0116 9.21571 7.48264C11.7381 5.95368 14.9962 6.68341 16.5376 9.18534C18.0791 11.6873 17.3434 14.9189 14.821 16.4479C14.0152 16.9691 13.0343 17.2471 12.0534 17.2471ZM15.1363 13.39L14.7509 13.2162C14.7509 13.2162 14.1904 12.973 13.8401 12.7992C13.805 12.7992 13.77 12.7645 13.735 12.7645C13.6299 12.7645 13.5598 12.7992 13.4897 12.834C13.4897 12.834 13.4547 12.8687 12.9642 13.4247C12.9292 13.4942 12.8591 13.529 12.7891 13.529H12.754C12.719 13.529 12.6489 13.4942 12.6139 13.4595L12.4387 13.39C12.0534 13.2162 11.7031 13.0077 11.4228 12.7297C11.3527 12.6602 11.2476 12.5907 11.1776 12.5212C10.9323 12.278 10.6871 12 10.5119 11.6873L10.4769 11.6178C10.4419 11.583 10.4419 11.5483 10.4068 11.4788C10.4068 11.4093 10.4068 11.3398 10.4419 11.305C10.4419 11.305 10.582 11.1313 10.6871 11.027C10.7572 10.9575 10.7922 10.8533 10.8623 10.7838C10.9323 10.6795 10.9674 10.5406 10.9323 10.4363C10.8973 10.2626 10.4769 9.32434 10.3718 9.11584C10.3017 9.0116 10.2317 8.97685 10.1266 8.9421H10.0215C9.9514 8.9421 9.8463 8.9421 9.7412 8.9421C9.67114 8.9421 9.60107 8.97685 9.531 8.97685L9.49597 9.0116C9.4259 9.04634 9.35584 9.11584 9.28577 9.15059C9.21571 9.22009 9.18067 9.28959 9.11061 9.35909C8.86538 9.67183 8.72524 10.0541 8.72524 10.4363C8.72524 10.7143 8.79531 10.9923 8.90041 11.2355L8.93544 11.3398C9.25074 12 9.67114 12.5907 10.2317 13.112L10.3718 13.251C10.4769 13.3552 10.582 13.4247 10.6521 13.529C11.3878 14.1545 12.2286 14.6062 13.1744 14.8494C13.2795 14.8842 13.4197 14.8842 13.5248 14.9189C13.6299 14.9189 13.77 14.9189 13.8751 14.9189C14.0503 14.9189 14.2605 14.8494 14.4006 14.7799C14.5057 14.7104 14.5758 14.7104 14.6458 14.6409L14.7159 14.5714C14.786 14.5019 14.856 14.4672 14.9261 14.3977C14.9962 14.3282 15.0662 14.2587 15.1013 14.1892C15.1713 14.0502 15.2064 13.8765 15.2414 13.7027C15.2414 13.6332 15.2414 13.529 15.2414 13.4595C15.2414 13.4595 15.2064 13.4247 15.1363 13.39Z" fill="#FDF3FF"/>
</g>
<defs>
<clipPath id="clip0">
<rect width="13.7143" height="13.7143" fill="white" transform="translate(5.14355 5.14287)"/>
</clipPath>
</defs>
</svg>
